{"title":"Triangoli Proibiti - Forbidden trios (2008)","uid":6717973,"size":1507172352,"categoryP":"porn","categoryS":"movies","magnet":"?xt=urn:btih:a168a1687ed84b892672881236d69619f3268961&amp;dn=Triangoli+Proibiti+-+Forbidden+trios+%282008%29&amp;tr=udp%3A%2F%2Ftracker.openbittorrent.com%3A80&amp;tr=udp%3A%2F%2Fopen.demonii.com%3A1337&amp;tr=udp%3A%2F%2Ftracker.coppersurfer.tk%3A6969&amp;tr=udp%3A%2F%2Fexodus.desync.com%3A6969","seeders":0,"leechers":1,"uploader":"silviuss","files":1,"time":1317656552,"description":"Triangoli Proibiti - Forbidden trios (2008)\n\nCover: &lt;a href=&quot;\nhttp://imagebb.org/view.php?filename=785vg650lo.jpg&quot; rel=&quot;nofollow&quot; target=&quot;_NEW&quot;&gt;\nhttp://imagebb.org/view.php?filename=785vg650lo.jpg&lt;/a&gt;\n\nPreview: &lt;a href=&quot;\nhttp://imagebb.org/view.php?filename=938Triangoli_Proibiti_200.jpg&quot; rel=&quot;nofollow&quot; target=&quot;_NEW&quot;&gt;\nhttp://imagebb.org/view.php?filename=938Triangoli_Proibiti_200.jpg&lt;/a&gt;\n\nInfo:\nFormat                           : AVI\nFormat/Info                      : Audio Video Interleave\nFile size                        : 1.40 GiB\nDuration                         : 2h 55mn\nOverall bit rate                 : 1 145 Kbps\nWriting library                  : VirtualDub build 0/release\n\nVideo\nID                               : 0\nFormat                           : MPEG-4 Visual\nFormat profile                   : Advanced Simple@L5\nFormat settings, BVOP            : 2\nFormat settings, QPel            : No\nFormat settings, GMC             : No warppoints\nFormat settings, Matrix          : Default (H.263)\nMuxing mode                      : Packed bitstream\nCodec ID                         : XVID\nCodec ID/Hint                    : XviD\nDuration                         : 2h 55mn\nBit rate                         : 911 Kbps\nWidth                            : 416 pixels\nHeight                           : 304 pixels\nDisplay aspect ratio             : 4:3\nFrame rate                       : 25.000 fps\nColor space                      : YUV\nChroma subsampling               : 4:2:0\nBit depth                        : 8 bits\nScan type                        : Progressive\nCompression mode                 : Lossy\nBits/(Pixel*Frame)               : 0.288\nStream size                      : 1.12 GiB (80%)\nWriting library                  : XviD 1.0.2 (UTC 2004-08-29)\n\nAudio\nID                               : 1\nFormat                           : MPEG Audio\nFormat version                   : Version 1\nFormat profile                   : Layer 3\nMode                             : Joint stereo\nMode extension                   : MS Stereo\nCodec ID                         : 55\nCodec ID/Hint                    : MP3\nDuration                         : 2h 55mn\nBit rate mode                    : Constant\nBit rate                         : 224 Kbps\nChannel(s)                       : 2 channels\nSampling rate                    : 44.1 KHz\nCompression mode                 : Lossy\nStream size                      : 281 MiB (20%)\nAlignment                        : Split accross interleaves\nInterleave, duration             : 40 ms (1.00 video frame)\nInterleave, preload duration     : 500 ms\nWriting library                  : LAME3.96.1\n","torrent":{"xt":"urn:btih:a168a1687ed84b892672881236d69619f3268961","amp;dn":"Triangoli+Proibiti+-+Forbidden+trios+%282008%29","amp;tr":["udp%3A%2F%2Ftracker.openbittorrent.com%3A80","udp%3A%2F%2Fopen.demonii.com%3A1337","udp%3A%2F%2Ftracker.coppersurfer.tk%3A6969","udp%3A%2F%2Fexodus.desync.com%3A6969"],"infoHash":"a168a1687ed84b892672881236d69619f3268961","infoHashBuffer":{"type":"Buffer","data":[161,104,161,104,126,216,75,137,38,114,136,18,54,214,150,25,243,38,137,97]},"announce":[],"urlList":[]}}